<svg width="34" height="32" viewBox="0 0 34 32" fill="none" xmlns="http://www.w3.org/2000/svg">
<path d="M11.9605 11.8808C12.8605 11.8808 13.59 10.8889 13.59 9.6654C13.59 8.44188 12.8605 7.45001 11.9605 7.45001C11.0606 7.45001 10.3311 8.44188 10.3311 9.6654C10.3311 10.8889 11.0606 11.8808 11.9605 11.8808Z" fill="#68B547"/>
<path d="M7.80852 12.1448C8.55749 12.1448 9.16465 11.2137 9.16465 10.0651C9.16465 8.91656 8.55749 7.98547 7.80852 7.98547C7.05955 7.98547 6.45239 8.91656 6.45239 10.0651C6.45239 11.2137 7.05955 12.1448 7.80852 12.1448Z" fill="#1A96D4"/>
<path d="M4.22473 12.3814C4.88361 12.3814 5.41773 11.522 5.41773 10.4618C5.41773 9.40159 4.88361 8.54214 4.22473 8.54214C3.56586 8.54214 3.03174 9.40159 3.03174 10.4618C3.03174 11.522 3.56586 12.3814 4.22473 12.3814Z" fill="#1A96D4"/>
<path d="M4.22473 7.17852C4.88361 7.17852 5.41773 6.30625 5.41773 5.23025C5.41773 4.15425 4.88361 3.28198 4.22473 3.28198C3.56586 3.28198 3.03174 4.15425 3.03174 5.23025C3.03174 6.30625 3.56586 7.17852 4.22473 7.17852Z" fill="#1A96D4"/>
<path d="M1.04356 7.70591C1.6199 7.70591 2.08712 6.89302 2.08712 5.89026C2.08712 4.88751 1.6199 4.07462 1.04356 4.07462C0.467218 4.07462 0 4.88751 0 5.89026C0 6.89302 0.467218 7.70591 1.04356 7.70591Z" fill="#1A96D4"/>
<path d="M1.04356 17.5705C1.6199 17.5705 2.08712 16.7576 2.08712 15.7549C2.08712 14.7521 1.6199 13.9392 1.04356 13.9392C0.467218 13.9392 0 14.7521 0 15.7549C0 16.7576 0.467218 17.5705 1.04356 17.5705Z" fill="#1A96D4"/>
<path d="M1.04356 27.5454C1.6199 27.5454 2.08712 26.7325 2.08712 25.7297C2.08712 24.727 1.6199 23.9141 1.04356 23.9141C0.467218 23.9141 0 24.727 0 25.7297C0 26.7325 0.467218 27.5454 1.04356 27.5454Z" fill="#1A96D4"/>
<path d="M1.04356 12.5831C1.6199 12.5831 2.08712 11.7702 2.08712 10.7675C2.08712 9.76474 1.6199 8.95184 1.04356 8.95184C0.467218 8.95184 0 9.76474 0 10.7675C0 11.7702 0.467218 12.5831 1.04356 12.5831Z" fill="#1A96D4"/>
<path d="M1.04356 22.558C1.6199 22.558 2.08712 21.7451 2.08712 20.7423C2.08712 19.7396 1.6199 18.9267 1.04356 18.9267C0.467218 18.9267 0 19.7396 0 20.7423C0 21.7451 0.467218 22.558 1.04356 22.558Z" fill="#1A96D4"/>
<path d="M4.22473 28.338C4.88361 28.338 5.41773 27.4568 5.41773 26.3698C5.41773 25.2828 4.88361 24.4016 4.22473 24.4016C3.56586 24.4016 3.03174 25.2828 3.03174 26.3698C3.03174 27.4568 3.56586 28.338 4.22473 28.338Z" fill="#1A96D4"/>
<path d="M4.22473 23.0486C4.88361 23.0486 5.41773 22.168 5.41773 21.0817C5.41773 19.9953 4.88361 19.1147 4.22473 19.1147C3.56586 19.1147 3.03174 19.9953 3.03174 21.0817C3.03174 22.168 3.56586 23.0486 4.22473 23.0486Z" fill="#1A96D4"/>
<path d="M4.22473 17.758C4.88361 17.758 5.41773 16.8612 5.41773 15.7549C5.41773 14.6486 4.88361 13.7518 4.22473 13.7518C3.56586 13.7518 3.03174 14.6486 3.03174 15.7549C3.03174 16.8612 3.56586 17.758 4.22473 17.758Z" fill="#1A96D4"/>
<path d="M7.85024 6.56586C8.62225 6.56586 9.24809 5.62223 9.24809 4.45819C9.24809 3.29416 8.62225 2.35052 7.85024 2.35052C7.07823 2.35052 6.45239 3.29416 6.45239 4.45819C6.45239 5.62223 7.07823 6.56586 7.85024 6.56586Z" fill="#1A96D4"/>
<path d="M7.80874 29.1935C8.58075 29.1935 9.20659 28.239 9.20659 27.0616C9.20659 25.8841 8.58075 24.9296 7.80874 24.9296C7.03673 24.9296 6.41089 25.8841 6.41089 27.0616C6.41089 28.239 7.03673 29.1935 7.80874 29.1935Z" fill="#1A96D4"/>
<path d="M7.80852 17.7997C8.55749 17.7997 9.16465 16.8733 9.16465 15.7306C9.16465 14.5879 8.55749 13.6616 7.80852 13.6616C7.05955 13.6616 6.45239 14.5879 6.45239 15.7306C6.45239 16.8733 7.05955 17.7997 7.80852 17.7997Z" fill="#68B547"/>
<path d="M7.80852 23.4833C8.55749 23.4833 9.16465 22.5614 9.16465 21.4242C9.16465 20.2869 8.55749 19.3651 7.80852 19.3651C7.05955 19.3651 6.45239 20.2869 6.45239 21.4242C6.45239 22.5614 7.05955 23.4833 7.80852 23.4833Z" fill="#1A96D4"/>
<path d="M11.9606 5.89897C12.8825 5.89897 13.6299 4.87115 13.6299 3.60327C13.6299 2.33538 12.8825 1.30756 11.9606 1.30756C11.0386 1.30756 10.2913 2.33538 10.2913 3.60327C10.2913 4.87115 11.0386 5.89897 11.9606 5.89897Z" fill="#1A96D4"/>
<path d="M11.9606 30.2577C12.8825 30.2577 13.6299 29.1958 13.6299 27.886C13.6299 26.5761 12.8825 25.5143 11.9606 25.5143C11.0386 25.5143 10.2913 26.5761 10.2913 27.886C10.2913 29.1958 11.0386 30.2577 11.9606 30.2577Z" fill="#1A96D4"/>
<path d="M11.9605 24.0187C12.8605 24.0187 13.59 23.033 13.59 21.817C13.59 20.6011 12.8605 19.6153 11.9605 19.6153C11.0606 19.6153 10.3311 20.6011 10.3311 21.817C10.3311 23.033 11.0606 24.0187 11.9605 24.0187Z" fill="#68B547"/>
<path d="M11.9605 17.9043C12.8605 17.9043 13.59 16.9172 13.59 15.6995C13.59 14.4818 12.8605 13.4947 11.9605 13.4947C11.0606 13.4947 10.3311 14.4818 10.3311 15.6995C10.3311 16.9172 11.0606 17.9043 11.9605 17.9043Z" fill="#68B547"/>
<path d="M21.8407 11.8808C22.7406 11.8808 23.4701 10.8889 23.4701 9.6654C23.4701 8.44188 22.7406 7.45001 21.8407 7.45001C20.9407 7.45001 20.2112 8.44188 20.2112 9.6654C20.2112 10.8889 20.9407 11.8808 21.8407 11.8808Z" fill="#68B547"/>
<path d="M25.9926 12.1448C26.7416 12.1448 27.3487 11.2137 27.3487 10.0651C27.3487 8.91656 26.7416 7.98547 25.9926 7.98547C25.2436 7.98547 24.6365 8.91656 24.6365 10.0651C24.6365 11.2137 25.2436 12.1448 25.9926 12.1448Z" fill="#096797"/>
<path d="M29.5765 12.3814C30.2354 12.3814 30.7695 11.522 30.7695 10.4618C30.7695 9.40159 30.2354 8.54214 29.5765 8.54214C28.9177 8.54214 28.3835 9.40159 28.3835 10.4618C28.3835 11.522 28.9177 12.3814 29.5765 12.3814Z" fill="#096797"/>
<path d="M29.5765 7.17852C30.2354 7.17852 30.7695 6.30625 30.7695 5.23025C30.7695 4.15425 30.2354 3.28198 29.5765 3.28198C28.9177 3.28198 28.3835 4.15425 28.3835 5.23025C28.3835 6.30625 28.9177 7.17852 29.5765 7.17852Z" fill="#096797"/>
<path d="M32.7577 7.70591C33.334 7.70591 33.8012 6.89302 33.8012 5.89026C33.8012 4.88751 33.334 4.07462 32.7577 4.07462C32.1813 4.07462 31.7141 4.88751 31.7141 5.89026C31.7141 6.89302 32.1813 7.70591 32.7577 7.70591Z" fill="#096797"/>
<path d="M32.7577 17.5705C33.334 17.5705 33.8012 16.7576 33.8012 15.7549C33.8012 14.7521 33.334 13.9392 32.7577 13.9392C32.1813 13.9392 31.7141 14.7521 31.7141 15.7549C31.7141 16.7576 32.1813 17.5705 32.7577 17.5705Z" fill="#096797"/>
<path d="M32.7577 27.5454C33.334 27.5454 33.8012 26.7325 33.8012 25.7297C33.8012 24.727 33.334 23.9141 32.7577 23.9141C32.1813 23.9141 31.7141 24.727 31.7141 25.7297C31.7141 26.7325 32.1813 27.5454 32.7577 27.5454Z" fill="#096797"/>
<path d="M32.7577 12.5831C33.334 12.5831 33.8012 11.7702 33.8012 10.7675C33.8012 9.76474 33.334 8.95184 32.7577 8.95184C32.1813 8.95184 31.7141 9.76474 31.7141 10.7675C31.7141 11.7702 32.1813 12.5831 32.7577 12.5831Z" fill="#096797"/>
<path d="M32.7577 22.558C33.334 22.558 33.8012 21.7451 33.8012 20.7423C33.8012 19.7396 33.334 18.9267 32.7577 18.9267C32.1813 18.9267 31.7141 19.7396 31.7141 20.7423C31.7141 21.7451 32.1813 22.558 32.7577 22.558Z" fill="#096797"/>
<path d="M29.5765 28.338C30.2354 28.338 30.7695 27.4568 30.7695 26.3698C30.7695 25.2828 30.2354 24.4016 29.5765 24.4016C28.9177 24.4016 28.3835 25.2828 28.3835 26.3698C28.3835 27.4568 28.9177 28.338 29.5765 28.338Z" fill="#096797"/>
<path d="M29.5765 23.0486C30.2354 23.0486 30.7695 22.168 30.7695 21.0817C30.7695 19.9953 30.2354 19.1147 29.5765 19.1147C28.9177 19.1147 28.3835 19.9953 28.3835 21.0817C28.3835 22.168 28.9177 23.0486 29.5765 23.0486Z" fill="#096797"/>
<path d="M29.5765 17.758C30.2354 17.758 30.7695 16.8612 30.7695 15.7549C30.7695 14.6486 30.2354 13.7518 29.5765 13.7518C28.9177 13.7518 28.3835 14.6486 28.3835 15.7549C28.3835 16.8612 28.9177 17.758 29.5765 17.758Z" fill="#096797"/>
<path d="M25.9508 6.56586C26.7228 6.56586 27.3487 5.62223 27.3487 4.45819C27.3487 3.29416 26.7228 2.35052 25.9508 2.35052C25.1788 2.35052 24.553 3.29416 24.553 4.45819C24.553 5.62223 25.1788 6.56586 25.9508 6.56586Z" fill="#096797"/>
<path d="M25.9926 29.1935C26.7646 29.1935 27.3904 28.239 27.3904 27.0616C27.3904 25.8841 26.7646 24.9296 25.9926 24.9296C25.2206 24.9296 24.5947 25.8841 24.5947 27.0616C24.5947 28.239 25.2206 29.1935 25.9926 29.1935Z" fill="#096797"/>
<path d="M25.9926 17.7997C26.7416 17.7997 27.3487 16.8733 27.3487 15.7306C27.3487 14.5879 26.7416 13.6616 25.9926 13.6616C25.2436 13.6616 24.6365 14.5879 24.6365 15.7306C24.6365 16.8733 25.2436 17.7997 25.9926 17.7997Z" fill="#68B547"/>
<path d="M25.9926 23.4833C26.7416 23.4833 27.3487 22.5614 27.3487 21.4242C27.3487 20.2869 26.7416 19.3651 25.9926 19.3651C25.2436 19.3651 24.6365 20.2869 24.6365 21.4242C24.6365 22.5614 25.2436 23.4833 25.9926 23.4833Z" fill="#096797"/>
<path d="M21.8407 5.89897C22.7627 5.89897 23.51 4.87115 23.51 3.60327C23.51 2.33538 22.7627 1.30756 21.8407 1.30756C20.9188 1.30756 20.1714 2.33538 20.1714 3.60327C20.1714 4.87115 20.9188 5.89897 21.8407 5.89897Z" fill="#096797"/>
<path d="M21.8407 30.2577C22.7627 30.2577 23.51 29.1958 23.51 27.886C23.51 26.5761 22.7627 25.5143 21.8407 25.5143C20.9188 25.5143 20.1714 26.5761 20.1714 27.886C20.1714 29.1958 20.9188 30.2577 21.8407 30.2577Z" fill="#096797"/>
<path d="M21.8407 24.0187C22.7406 24.0187 23.4701 23.033 23.4701 21.817C23.4701 20.6011 22.7406 19.6153 21.8407 19.6153C20.9407 19.6153 20.2112 20.6011 20.2112 21.817C20.2112 23.033 20.9407 24.0187 21.8407 24.0187Z" fill="#68B547"/>
<path d="M21.8407 17.9043C22.7406 17.9043 23.4701 16.9172 23.4701 15.6995C23.4701 14.4818 22.7406 13.4947 21.8407 13.4947C20.9407 13.4947 20.2112 14.4818 20.2112 15.6995C20.2112 16.9172 20.9407 17.9043 21.8407 17.9043Z" fill="#68B547"/>
<path d="M16.9007 5.09203C18.0224 5.09203 18.9318 3.95214 18.9318 2.54601C18.9318 1.13989 18.0224 0 16.9007 0C15.779 0 14.8696 1.13989 14.8696 2.54601C14.8696 3.95214 15.779 5.09203 16.9007 5.09203Z" fill="#1A96D4"/>
<path d="M16.9007 31.3847C18.0224 31.3847 18.9318 30.2448 18.9318 28.8386C18.9318 27.4325 18.0224 26.2926 16.9007 26.2926C15.779 26.2926 14.8696 27.4325 14.8696 28.8386C14.8696 30.2448 15.779 31.3847 16.9007 31.3847Z" fill="#1A96D4"/>
<path d="M16.9007 11.5122C17.9551 11.5122 18.8098 10.4409 18.8098 9.11934C18.8098 7.79781 17.9551 6.7265 16.9007 6.7265C15.8464 6.7265 14.9917 7.79781 14.9917 9.11934C14.9917 10.4409 15.8464 11.5122 16.9007 11.5122Z" fill="#68B547"/>
<path d="M16.9007 18.0855C17.9551 18.0855 18.8098 17.0142 18.8098 15.6926C18.8098 14.3711 17.9551 13.2998 16.9007 13.2998C15.8464 13.2998 14.9917 14.3711 14.9917 15.6926C14.9917 17.0142 15.8464 18.0855 16.9007 18.0855Z" fill="#68B547"/>
<path d="M16.9007 24.6582C17.9551 24.6582 18.8098 23.5869 18.8098 22.2653C18.8098 20.9438 17.9551 19.8725 16.9007 19.8725C15.8464 19.8725 14.9917 20.9438 14.9917 22.2653C14.9917 23.5869 15.8464 24.6582 16.9007 24.6582Z" fill="#68B547"/>
</svg>
