<svg width="1100" height="797" viewBox="0 0 1100 797" fill="none" xmlns="http://www.w3.org/2000/svg">
<path d="M546.17 728.42C492.02 751.69 429.26 726.66 405.98 672.52L120.57 8.48998C119.41 5.79998 118.38 3.08999 117.46 0.359985H0.779785V796.64H1099.22V490.71L546.17 728.42Z" fill="#E1E9F7"/>
<path d="M1099.22 490.71L546.17 728.42C492.02 751.69 429.26 726.66 405.98 672.52L120.57 8.48998C119.41 5.79998 118.38 3.08999 117.46 0.359985H95C96.54 5.94999 98.47 11.5 100.83 16.98L386.24 681.01C407.09 729.51 454.49 758.59 504.22 758.59C521.09 758.59 538.22 755.24 554.67 748.17L1099.23 514.11V490.71H1099.22Z" fill="white"/>
</svg>
