<?xml version="1.0" encoding="utf-8"?>
<!-- Generator: Adobe Illustrator 24.0.1, SVG Export Plug-In . SVG Version: 6.00 Build 0)  -->
<svg version="1.1" id="Layer_1" xmlns="http://www.w3.org/2000/svg" xmlns:xlink="http://www.w3.org/1999/xlink" x="0px" y="0px"
	 viewBox="0 0 1105.51 807.87" style="enable-background:new 0 0 1105.51 807.87;" xml:space="preserve">
<style type="text/css">
	.st0{fill:#E1E9F7;}
	.st1{fill:#FFFFFF;}
</style>
<path class="st0" d="M549.17,733.42c-54.15,23.27-116.91-1.76-140.19-55.9L123.57,13.49c-1.16-2.69-2.19-5.4-3.11-8.13H3.78v796.28
	h1098.44V495.71L549.17,733.42z"/>
<path class="st1" d="M1102.22,495.71L549.17,733.42c-54.15,23.27-116.91-1.76-140.19-55.9L123.57,13.49
	c-1.16-2.69-2.19-5.4-3.11-8.13H98c1.54,5.59,3.47,11.14,5.83,16.62l285.41,664.03c20.85,48.5,68.25,77.58,117.98,77.58
	c16.87,0,34-3.35,50.45-10.42l544.56-234.06V495.71z"/>
</svg>
