<?xml version="1.0" encoding="utf-8"?>
<!-- Generator: Adobe Illustrator 24.0.1, SVG Export Plug-In . SVG Version: 6.00 Build 0)  -->
<svg version="1.1" id="Layer_1" xmlns="http://www.w3.org/2000/svg" xmlns:xlink="http://www.w3.org/1999/xlink" x="0px" y="0px"
	 viewBox="0 0 595.28 841.89" style="enable-background:new 0 0 595.28 841.89;" xml:space="preserve">
<style type="text/css">
	.st0{fill:#68B547;}
	.st1{fill:#1A96D4;}
	.st2{fill:#096797;}
	.st3{stroke:#000000;stroke-width:2.8984;stroke-miterlimit:10;}
</style>
<g>
	<g>
		<ellipse class="st0" cx="218.66" cy="178.23" rx="26.17" ry="35.58"/>
		<ellipse class="st1" cx="151.98" cy="184.65" rx="21.78" ry="33.4"/>
		<ellipse class="st1" cx="94.42" cy="191.02" rx="19.16" ry="30.83"/>
		<ellipse class="st1" cx="94.42" cy="107" rx="19.16" ry="31.29"/>
		<ellipse class="st1" cx="43.33" cy="117.6" rx="16.76" ry="29.16"/>
		<ellipse class="st1" cx="43.33" cy="276.03" rx="16.76" ry="29.16"/>
		<ellipse class="st1" cx="43.33" cy="436.23" rx="16.76" ry="29.16"/>
		<ellipse class="st1" cx="43.33" cy="195.93" rx="16.76" ry="29.16"/>
		<ellipse class="st1" cx="43.33" cy="356.13" rx="16.76" ry="29.16"/>
		<ellipse class="st1" cx="94.42" cy="446.51" rx="19.16" ry="31.61"/>
		<ellipse class="st1" cx="94.42" cy="361.58" rx="19.16" ry="31.59"/>
		<ellipse class="st1" cx="94.42" cy="276.03" rx="19.16" ry="32.17"/>
		<ellipse class="st1" cx="152.65" cy="94.6" rx="22.45" ry="33.85"/>
		<ellipse class="st1" cx="151.98" cy="457.62" rx="22.45" ry="34.24"/>
		<ellipse class="st0" cx="151.98" cy="275.64" rx="21.78" ry="33.23"/>
		<ellipse class="st1" cx="151.98" cy="367.08" rx="21.78" ry="33.07"/>
		<ellipse class="st1" cx="218.66" cy="80.87" rx="26.81" ry="36.87"/>
		<ellipse class="st1" cx="218.66" cy="470.86" rx="26.81" ry="38.09"/>
		<ellipse class="st0" cx="218.66" cy="373.39" rx="26.17" ry="35.36"/>
		<ellipse class="st0" cx="218.66" cy="275.14" rx="26.17" ry="35.41"/>
	</g>
	<g>
		<ellipse class="st0" cx="377.34" cy="178.23" rx="26.17" ry="35.58"/>
		<ellipse class="st2" cx="444.02" cy="184.65" rx="21.78" ry="33.4"/>
		<ellipse class="st2" cx="501.58" cy="191.02" rx="19.16" ry="30.83"/>
		<ellipse class="st2" cx="501.58" cy="107" rx="19.16" ry="31.29"/>
		<ellipse class="st2" cx="552.67" cy="117.6" rx="16.76" ry="29.16"/>
		<ellipse class="st2" cx="552.67" cy="276.03" rx="16.76" ry="29.16"/>
		<ellipse class="st2" cx="552.67" cy="436.23" rx="16.76" ry="29.16"/>
		<ellipse class="st2" cx="552.67" cy="195.93" rx="16.76" ry="29.16"/>
		<ellipse class="st2" cx="552.67" cy="356.13" rx="16.76" ry="29.16"/>
		<ellipse class="st2" cx="501.58" cy="446.51" rx="19.16" ry="31.61"/>
		<ellipse class="st2" cx="501.58" cy="361.58" rx="19.16" ry="31.59"/>
		<ellipse class="st2" cx="501.58" cy="276.03" rx="19.16" ry="32.17"/>
		<ellipse class="st2" cx="443.35" cy="94.6" rx="22.45" ry="33.85"/>
		<ellipse class="st2" cx="444.02" cy="457.62" rx="22.45" ry="34.24"/>
		<ellipse class="st0" cx="444.02" cy="275.64" rx="21.78" ry="33.23"/>
		<ellipse class="st2" cx="444.02" cy="367.08" rx="21.78" ry="33.07"/>
		<ellipse class="st2" cx="377.34" cy="80.87" rx="26.81" ry="36.87"/>
		<ellipse class="st2" cx="377.34" cy="470.86" rx="26.81" ry="38.09"/>
		<ellipse class="st0" cx="377.34" cy="373.39" rx="26.17" ry="35.36"/>
		<ellipse class="st0" cx="377.34" cy="275.14" rx="26.17" ry="35.41"/>
	</g>
	<g>
		<ellipse class="st1" cx="298" cy="63.89" rx="32.62" ry="40.89"/>
		<ellipse class="st1" cx="298" cy="486.16" rx="32.62" ry="40.89"/>
		<ellipse class="st0" cx="298" cy="169.46" rx="30.66" ry="38.43"/>
		<ellipse class="st0" cx="298" cy="275.03" rx="30.66" ry="38.43"/>
		<ellipse class="st0" cx="298" cy="380.59" rx="30.66" ry="38.43"/>
	</g>
</g>
<g>
	<path class="st3" d="M173.71,726.32L65.97,645.26l98.45-67.59c3.6-2.96,5.1-5.39,5.1-8.35c0-5.12-4.8-9.42-10.79-9.42
		c-3,0-5.4,1.35-9,4.31l-96.26,66.99v-60.26c0-6.19-5.1-11.04-11.69-11.04c-6.9,0-11.69,4.85-11.69,11.04v161.58
		c0,6.19,4.8,11.04,11.69,11.04c6.6,0,11.69-4.85,11.69-11.04v-72.64l104.65,79.37c3.3,2.96,6.3,4.31,9.3,4.31
		c6,0,10.79-4.31,10.79-9.43C178.21,730.89,177.01,728.74,173.71,726.32z"/>
	<path class="st3" d="M292.45,559.89c-47.38,0-78.27,9.59-78.27,54.29v118.33c0,6.19,4.8,11.04,11.69,11.04
		c6.6,0,11.69-4.85,11.69-11.04V612.83c0-32.59,20.99-33.56,54.88-33.56c34.19,0,55.48,0.97,55.48,33.56v119.68
		c0,6.19,4.8,11.04,11.69,11.04c6.6,0,11.69-4.85,11.69-11.04V614.18C371.32,569.21,340.73,559.89,292.45,559.89z"/>
	<path class="st3" d="M555.13,562.85H411.8c-6.3,0-11.1,4.31-11.1,9.43c0,5.39,4.8,9.43,11.1,9.43h59.67v150.81
		c0,6.19,5.1,11.04,11.69,11.04c6.9,0,11.69-4.85,11.69-11.04V581.7h60.27c6,0,10.79-4.04,10.79-9.43
		C565.93,567.16,561.13,562.85,555.13,562.85z"/>
</g>
</svg>
