<svg width="103" height="32" viewBox="0 0 103 32" fill="none" xmlns="http://www.w3.org/2000/svg">
<path d="M57.2415 24.4345L44.6713 14.9772L56.1576 7.09132C56.5776 6.74597 56.7526 6.46246 56.7526 6.11711C56.7526 5.51975 56.1926 5.01807 55.4937 5.01807C55.1437 5.01807 54.8637 5.17557 54.4437 5.52092L43.2129 13.3367V6.30612C43.2129 5.58392 42.6179 5.01807 41.849 5.01807C41.044 5.01807 40.4851 5.58392 40.4851 6.30612V25.1579C40.4851 25.8801 41.0451 26.446 41.849 26.446C42.619 26.446 43.2129 25.8801 43.2129 25.1579V16.6829L55.4226 25.9431C55.8076 26.2885 56.1576 26.446 56.5076 26.446C57.2076 26.446 57.7665 25.9431 57.7665 25.3458C57.7665 24.9677 57.6265 24.7169 57.2415 24.4345Z" fill="white"/>
<path d="M71.095 5.01685C65.5671 5.01685 61.9631 6.13572 61.9631 11.3509V25.1567C61.9631 25.8789 62.5232 26.4447 63.327 26.4447C64.0971 26.4447 64.6909 25.8789 64.6909 25.1567V11.1934C64.6909 7.39111 67.1399 7.27794 71.0939 7.27794C75.0829 7.27794 77.5668 7.39111 77.5668 11.1934V25.1567C77.5668 25.8789 78.1268 26.4447 78.9307 26.4447C79.7007 26.4447 80.2946 25.8789 80.2946 25.1567V11.3509C80.2969 6.10422 76.7279 5.01685 71.095 5.01685Z" fill="white"/>
<path d="M101.742 5.3623H85.0197C84.2846 5.3623 83.7246 5.86517 83.7246 6.46252C83.7246 7.09138 84.2846 7.56274 85.0197 7.56274H91.9815V25.158C91.9815 25.8802 92.5765 26.446 93.3453 26.446C94.1504 26.446 94.7092 25.8802 94.7092 25.158V7.56157H101.741C102.441 7.56157 103 7.09022 103 6.46136C103.002 5.86516 102.442 5.3623 101.742 5.3623Z" fill="white"/>
<path d="M11.9605 11.8807C12.8605 11.8807 13.59 10.8889 13.59 9.66534C13.59 8.44181 12.8605 7.44995 11.9605 7.44995C11.0606 7.44995 10.3311 8.44181 10.3311 9.66534C10.3311 10.8889 11.0606 11.8807 11.9605 11.8807Z" fill="white"/>
<path d="M7.80852 12.1449C8.55749 12.1449 9.16465 11.2138 9.16465 10.0652C9.16465 8.91669 8.55749 7.9856 7.80852 7.9856C7.05955 7.9856 6.45239 8.91669 6.45239 10.0652C6.45239 11.2138 7.05955 12.1449 7.80852 12.1449Z" fill="white"/>
<path d="M4.22473 12.3815C4.88361 12.3815 5.41773 11.522 5.41773 10.4619C5.41773 9.40168 4.88361 8.54224 4.22473 8.54224C3.56586 8.54224 3.03174 9.40168 3.03174 10.4619C3.03174 11.522 3.56586 12.3815 4.22473 12.3815Z" fill="white"/>
<path d="M4.22473 7.17852C4.88361 7.17852 5.41773 6.30625 5.41773 5.23025C5.41773 4.15425 4.88361 3.28198 4.22473 3.28198C3.56586 3.28198 3.03174 4.15425 3.03174 5.23025C3.03174 6.30625 3.56586 7.17852 4.22473 7.17852Z" fill="white"/>
<path d="M1.04356 7.706C1.6199 7.706 2.08712 6.89311 2.08712 5.89035C2.08712 4.8876 1.6199 4.07471 1.04356 4.07471C0.467218 4.07471 0 4.8876 0 5.89035C0 6.89311 0.467218 7.706 1.04356 7.706Z" fill="white"/>
<path d="M1.04356 17.5705C1.6199 17.5705 2.08712 16.7576 2.08712 15.7549C2.08712 14.7521 1.6199 13.9392 1.04356 13.9392C0.467218 13.9392 0 14.7521 0 15.7549C0 16.7576 0.467218 17.5705 1.04356 17.5705Z" fill="white"/>
<path d="M1.04356 27.5454C1.6199 27.5454 2.08712 26.7325 2.08712 25.7297C2.08712 24.727 1.6199 23.9141 1.04356 23.9141C0.467218 23.9141 0 24.727 0 25.7297C0 26.7325 0.467218 27.5454 1.04356 27.5454Z" fill="white"/>
<path d="M1.04356 12.5832C1.6199 12.5832 2.08712 11.7703 2.08712 10.7676C2.08712 9.7648 1.6199 8.9519 1.04356 8.9519C0.467218 8.9519 0 9.7648 0 10.7676C0 11.7703 0.467218 12.5832 1.04356 12.5832Z" fill="white"/>
<path d="M1.04356 22.5581C1.6199 22.5581 2.08712 21.7452 2.08712 20.7424C2.08712 19.7397 1.6199 18.9268 1.04356 18.9268C0.467218 18.9268 0 19.7397 0 20.7424C0 21.7452 0.467218 22.5581 1.04356 22.5581Z" fill="white"/>
<path d="M4.22473 28.338C4.88361 28.338 5.41773 27.4568 5.41773 26.3698C5.41773 25.2828 4.88361 24.4016 4.22473 24.4016C3.56586 24.4016 3.03174 25.2828 3.03174 26.3698C3.03174 27.4568 3.56586 28.338 4.22473 28.338Z" fill="white"/>
<path d="M4.22473 23.0486C4.88361 23.0486 5.41773 22.168 5.41773 21.0817C5.41773 19.9954 4.88361 19.1147 4.22473 19.1147C3.56586 19.1147 3.03174 19.9954 3.03174 21.0817C3.03174 22.168 3.56586 23.0486 4.22473 23.0486Z" fill="white"/>
<path d="M4.22473 17.7581C4.88361 17.7581 5.41773 16.8613 5.41773 15.755C5.41773 14.6488 4.88361 13.752 4.22473 13.752C3.56586 13.752 3.03174 14.6488 3.03174 15.755C3.03174 16.8613 3.56586 17.7581 4.22473 17.7581Z" fill="white"/>
<path d="M7.85024 6.56592C8.62225 6.56592 9.24809 5.62229 9.24809 4.45825C9.24809 3.29422 8.62225 2.35059 7.85024 2.35059C7.07823 2.35059 6.45239 3.29422 6.45239 4.45825C6.45239 5.62229 7.07823 6.56592 7.85024 6.56592Z" fill="white"/>
<path d="M7.80874 29.1936C8.58075 29.1936 9.20659 28.2391 9.20659 27.0616C9.20659 25.8842 8.58075 24.9297 7.80874 24.9297C7.03673 24.9297 6.41089 25.8842 6.41089 27.0616C6.41089 28.2391 7.03673 29.1936 7.80874 29.1936Z" fill="white"/>
<path d="M7.80852 17.7998C8.55749 17.7998 9.16465 16.8734 9.16465 15.7307C9.16465 14.588 8.55749 13.6616 7.80852 13.6616C7.05955 13.6616 6.45239 14.588 6.45239 15.7307C6.45239 16.8734 7.05955 17.7998 7.80852 17.7998Z" fill="white"/>
<path d="M7.80852 23.4832C8.55749 23.4832 9.16465 22.5613 9.16465 21.4241C9.16465 20.2869 8.55749 19.365 7.80852 19.365C7.05955 19.365 6.45239 20.2869 6.45239 21.4241C6.45239 22.5613 7.05955 23.4832 7.80852 23.4832Z" fill="white"/>
<path d="M11.9606 5.89904C12.8825 5.89904 13.6299 4.87121 13.6299 3.60333C13.6299 2.33544 12.8825 1.30762 11.9606 1.30762C11.0386 1.30762 10.2913 2.33544 10.2913 3.60333C10.2913 4.87121 11.0386 5.89904 11.9606 5.89904Z" fill="white"/>
<path d="M11.9606 30.2578C12.8825 30.2578 13.6299 29.1959 13.6299 27.8861C13.6299 26.5762 12.8825 25.5144 11.9606 25.5144C11.0386 25.5144 10.2913 26.5762 10.2913 27.8861C10.2913 29.1959 11.0386 30.2578 11.9606 30.2578Z" fill="white"/>
<path d="M11.9605 24.0189C12.8605 24.0189 13.59 23.0331 13.59 21.8172C13.59 20.6012 12.8605 19.6155 11.9605 19.6155C11.0606 19.6155 10.3311 20.6012 10.3311 21.8172C10.3311 23.0331 11.0606 24.0189 11.9605 24.0189Z" fill="white"/>
<path d="M11.9605 17.9042C12.8605 17.9042 13.59 16.9171 13.59 15.6994C13.59 14.4818 12.8605 13.4946 11.9605 13.4946C11.0606 13.4946 10.3311 14.4818 10.3311 15.6994C10.3311 16.9171 11.0606 17.9042 11.9605 17.9042Z" fill="white"/>
<path d="M21.8407 11.8807C22.7406 11.8807 23.4701 10.8889 23.4701 9.66534C23.4701 8.44181 22.7406 7.44995 21.8407 7.44995C20.9407 7.44995 20.2112 8.44181 20.2112 9.66534C20.2112 10.8889 20.9407 11.8807 21.8407 11.8807Z" fill="white"/>
<path d="M25.9926 12.1449C26.7416 12.1449 27.3487 11.2138 27.3487 10.0652C27.3487 8.91669 26.7416 7.9856 25.9926 7.9856C25.2436 7.9856 24.6365 8.91669 24.6365 10.0652C24.6365 11.2138 25.2436 12.1449 25.9926 12.1449Z" fill="white"/>
<path d="M29.5765 12.3815C30.2354 12.3815 30.7695 11.522 30.7695 10.4619C30.7695 9.40168 30.2354 8.54224 29.5765 8.54224C28.9177 8.54224 28.3835 9.40168 28.3835 10.4619C28.3835 11.522 28.9177 12.3815 29.5765 12.3815Z" fill="white"/>
<path d="M29.5765 7.17852C30.2354 7.17852 30.7695 6.30625 30.7695 5.23025C30.7695 4.15425 30.2354 3.28198 29.5765 3.28198C28.9177 3.28198 28.3835 4.15425 28.3835 5.23025C28.3835 6.30625 28.9177 7.17852 29.5765 7.17852Z" fill="white"/>
<path d="M32.7577 7.706C33.334 7.706 33.8012 6.89311 33.8012 5.89035C33.8012 4.8876 33.334 4.07471 32.7577 4.07471C32.1813 4.07471 31.7141 4.8876 31.7141 5.89035C31.7141 6.89311 32.1813 7.706 32.7577 7.706Z" fill="white"/>
<path d="M32.7577 17.5705C33.334 17.5705 33.8012 16.7576 33.8012 15.7549C33.8012 14.7521 33.334 13.9392 32.7577 13.9392C32.1813 13.9392 31.7141 14.7521 31.7141 15.7549C31.7141 16.7576 32.1813 17.5705 32.7577 17.5705Z" fill="white"/>
<path d="M32.7577 27.5454C33.334 27.5454 33.8012 26.7325 33.8012 25.7297C33.8012 24.727 33.334 23.9141 32.7577 23.9141C32.1813 23.9141 31.7141 24.727 31.7141 25.7297C31.7141 26.7325 32.1813 27.5454 32.7577 27.5454Z" fill="white"/>
<path d="M32.7577 12.5832C33.334 12.5832 33.8012 11.7703 33.8012 10.7676C33.8012 9.7648 33.334 8.9519 32.7577 8.9519C32.1813 8.9519 31.7141 9.7648 31.7141 10.7676C31.7141 11.7703 32.1813 12.5832 32.7577 12.5832Z" fill="white"/>
<path d="M32.7577 22.5581C33.334 22.5581 33.8012 21.7452 33.8012 20.7424C33.8012 19.7397 33.334 18.9268 32.7577 18.9268C32.1813 18.9268 31.7141 19.7397 31.7141 20.7424C31.7141 21.7452 32.1813 22.5581 32.7577 22.5581Z" fill="white"/>
<path d="M29.5765 28.338C30.2354 28.338 30.7695 27.4568 30.7695 26.3698C30.7695 25.2828 30.2354 24.4016 29.5765 24.4016C28.9177 24.4016 28.3835 25.2828 28.3835 26.3698C28.3835 27.4568 28.9177 28.338 29.5765 28.338Z" fill="white"/>
<path d="M29.5765 23.0486C30.2354 23.0486 30.7695 22.168 30.7695 21.0817C30.7695 19.9954 30.2354 19.1147 29.5765 19.1147C28.9177 19.1147 28.3835 19.9954 28.3835 21.0817C28.3835 22.168 28.9177 23.0486 29.5765 23.0486Z" fill="white"/>
<path d="M29.5765 17.7581C30.2354 17.7581 30.7695 16.8613 30.7695 15.755C30.7695 14.6488 30.2354 13.752 29.5765 13.752C28.9177 13.752 28.3835 14.6488 28.3835 15.755C28.3835 16.8613 28.9177 17.7581 29.5765 17.7581Z" fill="white"/>
<path d="M25.9508 6.56592C26.7228 6.56592 27.3487 5.62229 27.3487 4.45825C27.3487 3.29422 26.7228 2.35059 25.9508 2.35059C25.1788 2.35059 24.553 3.29422 24.553 4.45825C24.553 5.62229 25.1788 6.56592 25.9508 6.56592Z" fill="white"/>
<path d="M25.9926 29.1936C26.7646 29.1936 27.3904 28.2391 27.3904 27.0616C27.3904 25.8842 26.7646 24.9297 25.9926 24.9297C25.2206 24.9297 24.5947 25.8842 24.5947 27.0616C24.5947 28.2391 25.2206 29.1936 25.9926 29.1936Z" fill="white"/>
<path d="M25.9926 17.7998C26.7416 17.7998 27.3487 16.8734 27.3487 15.7307C27.3487 14.588 26.7416 13.6616 25.9926 13.6616C25.2436 13.6616 24.6365 14.588 24.6365 15.7307C24.6365 16.8734 25.2436 17.7998 25.9926 17.7998Z" fill="white"/>
<path d="M25.9926 23.4832C26.7416 23.4832 27.3487 22.5613 27.3487 21.4241C27.3487 20.2869 26.7416 19.365 25.9926 19.365C25.2436 19.365 24.6365 20.2869 24.6365 21.4241C24.6365 22.5613 25.2436 23.4832 25.9926 23.4832Z" fill="white"/>
<path d="M21.8407 5.89904C22.7627 5.89904 23.51 4.87121 23.51 3.60333C23.51 2.33544 22.7627 1.30762 21.8407 1.30762C20.9188 1.30762 20.1714 2.33544 20.1714 3.60333C20.1714 4.87121 20.9188 5.89904 21.8407 5.89904Z" fill="white"/>
<path d="M21.8407 30.2578C22.7627 30.2578 23.51 29.1959 23.51 27.8861C23.51 26.5762 22.7627 25.5144 21.8407 25.5144C20.9188 25.5144 20.1714 26.5762 20.1714 27.8861C20.1714 29.1959 20.9188 30.2578 21.8407 30.2578Z" fill="white"/>
<path d="M21.8407 24.0189C22.7406 24.0189 23.4701 23.0331 23.4701 21.8172C23.4701 20.6012 22.7406 19.6155 21.8407 19.6155C20.9407 19.6155 20.2112 20.6012 20.2112 21.8172C20.2112 23.0331 20.9407 24.0189 21.8407 24.0189Z" fill="white"/>
<path d="M21.8407 17.9042C22.7406 17.9042 23.4701 16.9171 23.4701 15.6994C23.4701 14.4818 22.7406 13.4946 21.8407 13.4946C20.9407 13.4946 20.2112 14.4818 20.2112 15.6994C20.2112 16.9171 20.9407 17.9042 21.8407 17.9042Z" fill="white"/>
<path d="M16.9007 5.09203C18.0224 5.09203 18.9318 3.95214 18.9318 2.54601C18.9318 1.13989 18.0224 0 16.9007 0C15.779 0 14.8696 1.13989 14.8696 2.54601C14.8696 3.95214 15.779 5.09203 16.9007 5.09203Z" fill="white"/>
<path d="M16.9007 31.3848C18.0224 31.3848 18.9318 30.2449 18.9318 28.8387C18.9318 27.4326 18.0224 26.2927 16.9007 26.2927C15.779 26.2927 14.8696 27.4326 14.8696 28.8387C14.8696 30.2449 15.779 31.3848 16.9007 31.3848Z" fill="white"/>
<path d="M16.9007 11.5122C17.9551 11.5122 18.8098 10.4409 18.8098 9.11941C18.8098 7.79788 17.9551 6.72656 16.9007 6.72656C15.8464 6.72656 14.9917 7.79788 14.9917 9.11941C14.9917 10.4409 15.8464 11.5122 16.9007 11.5122Z" fill="white"/>
<path d="M16.9007 18.0855C17.9551 18.0855 18.8098 17.0142 18.8098 15.6926C18.8098 14.3711 17.9551 13.2998 16.9007 13.2998C15.8464 13.2998 14.9917 14.3711 14.9917 15.6926C14.9917 17.0142 15.8464 18.0855 16.9007 18.0855Z" fill="white"/>
<path d="M16.9007 24.6582C17.9551 24.6582 18.8098 23.5869 18.8098 22.2654C18.8098 20.9439 17.9551 19.8726 16.9007 19.8726C15.8464 19.8726 14.9917 20.9439 14.9917 22.2654C14.9917 23.5869 15.8464 24.6582 16.9007 24.6582Z" fill="white"/>
</svg>
